<svg xmlns="http://www.w3.org/2000/svg" viewBox="0 0 100 100" width="192" height="192">
  <rect width="100" height="100" fill="#ffe3ec"/>
  <g transform="translate(50 50) scale(0.66) translate(-50 -50)">
    <ellipse cx="50" cy="22" rx="17" ry="22" fill="#f0608f"/>
    <ellipse cx="50" cy="22" rx="17" ry="22" fill="#ff9dbd" transform="rotate(60 50 50)"/>
    <ellipse cx="50" cy="22" rx="17" ry="22" fill="#f0608f" transform="rotate(120 50 50)"/>
    <ellipse cx="50" cy="22" rx="17" ry="22" fill="#ff9dbd" transform="rotate(180 50 50)"/>
    <ellipse cx="50" cy="22" rx="17" ry="22" fill="#f0608f" transform="rotate(240 50 50)"/>
    <ellipse cx="50" cy="22" rx="17" ry="22" fill="#ff9dbd" transform="rotate(300 50 50)"/>
    <circle cx="50" cy="50" r="21" fill="#ffd66b"/>
    <circle cx="42.5" cy="47" r="2.8" fill="#4a2a3f"/>
    <circle cx="57.5" cy="47" r="2.8" fill="#4a2a3f"/>
    <path d="M42 55 Q50 62.5 58 55" stroke="#4a2a3f" stroke-width="2.6" fill="none" stroke-linecap="round"/>
  </g>
</svg>
